<svg width="308" height="348" viewBox="0 0 308 348" fill="none" xmlns="http://www.w3.org/2000/svg">
<g clip-path="url(#clip0_104_1456)">
<path d="M14.9532 9.1078C12.0985 10.0594 9.51568 12.9412 8.91756 15.8503C7.74849 21.4509 13.3491 27.0516 18.9497 25.8825C23.1638 25.0125 26.4263 20.7169 26.0185 16.6659C25.7194 13.8112 23.5716 10.875 20.8529 9.5428C19.1944 8.75437 16.6388 8.56405 14.9532 9.1078Z" fill="#DBDBDB"/>
<path d="M83.4163 9.10777C79.311 10.4671 76.5378 14.9803 77.3807 18.9496C78.0603 22.185 81.0782 25.2028 84.2863 25.8825C89.5607 26.9971 95.0253 22.0218 94.4816 16.6659C94.1825 13.8112 92.0347 10.875 89.316 9.54277C87.6575 8.75433 85.1019 8.56402 83.4163 9.10777Z" fill="#DBDBDB"/>
<path d="M151.887 9.1078C149.033 10.0594 146.45 12.9412 145.852 15.8503C144.683 21.4509 150.283 27.0516 155.884 25.8825C160.098 25.0125 163.36 20.7169 162.953 16.6659C162.654 13.8112 160.506 10.875 157.787 9.5428C156.129 8.75437 153.573 8.56405 151.887 9.1078Z" fill="#DBDBDB"/>
<path d="M220.355 9.1078C217.501 10.0594 214.918 12.9412 214.32 15.8503C213.151 21.4509 218.751 27.0516 224.352 25.8825C228.566 25.0125 231.829 20.7169 231.421 16.6659C231.122 13.8112 228.974 10.875 226.255 9.5428C224.597 8.75437 222.041 8.56405 220.355 9.1078Z" fill="#DBDBDB"/>
<path d="M288.823 9.1078C285.968 10.0594 283.386 12.9412 282.788 15.8503C281.618 21.4509 287.219 27.0516 292.82 25.8825C297.034 25.0125 300.296 20.7169 299.888 16.6659C299.589 13.8112 297.442 10.875 294.723 9.5428C293.064 8.75437 290.509 8.56405 288.823 9.1078Z" fill="#DBDBDB"/>
<path d="M14.9532 77.5875C12.0985 78.5391 9.51568 81.421 8.91756 84.33C7.74849 89.9307 13.3491 95.5313 18.9497 94.3622C23.1638 93.4922 26.4263 89.1966 26.0185 85.1457C25.7194 82.291 23.5716 79.3547 20.8529 78.0225C19.1944 77.2341 16.6388 77.0438 14.9532 77.5875Z" fill="#DBDBDB"/>
<path d="M83.4163 77.5876C79.311 78.947 76.5378 83.4601 77.3807 87.4295C78.0603 90.6648 81.0782 93.6826 84.2863 94.3623C89.5607 95.477 95.0253 90.5017 94.4816 85.1458C94.1825 82.2911 92.0347 79.3548 89.316 78.0226C87.6575 77.2342 85.1019 77.0439 83.4163 77.5876Z" fill="#DBDBDB"/>
<path d="M151.887 77.5875C149.033 78.5391 146.45 81.421 145.852 84.33C144.683 89.9307 150.283 95.5313 155.884 94.3622C160.098 93.4922 163.36 89.1966 162.953 85.1457C162.654 82.291 160.506 79.3547 157.787 78.0225C156.129 77.2341 153.573 77.0438 151.887 77.5875Z" fill="#DBDBDB"/>
<path d="M220.355 77.5875C217.501 78.5391 214.918 81.421 214.32 84.33C213.151 89.9307 218.751 95.5313 224.352 94.3622C228.566 93.4922 231.829 89.1966 231.421 85.1457C231.122 82.291 228.974 79.3547 226.255 78.0225C224.597 77.2341 222.041 77.0438 220.355 77.5875Z" fill="#DBDBDB"/>
<path d="M288.823 77.5875C285.968 78.5391 283.386 81.421 282.788 84.33C281.618 89.9307 287.219 95.5313 292.82 94.3622C297.034 93.4922 300.296 89.1966 299.888 85.1457C299.589 82.291 297.442 79.3547 294.723 78.0225C293.064 77.2341 290.509 77.0438 288.823 77.5875Z" fill="#DBDBDB"/>
<path d="M14.9532 146.018C12.0985 146.97 9.51568 149.852 8.91756 152.761C7.74849 158.361 13.3491 163.962 18.9497 162.793C23.1638 161.923 26.4263 157.627 26.0185 153.576C25.7194 150.722 23.5716 147.785 20.8529 146.453C19.1944 145.665 16.6388 145.474 14.9532 146.018Z" fill="#DBDBDB"/>
<path d="M83.4212 146.018C80.5665 146.97 77.9837 149.852 77.3856 152.761C76.2165 158.361 81.8171 163.962 87.4178 162.793C91.6318 161.923 94.8943 157.627 94.4865 153.576C94.1875 150.722 92.0396 147.785 89.3209 146.453C87.6624 145.665 85.1068 145.474 83.4212 146.018Z" fill="#DBDBDB"/>
<path d="M151.889 146.018C149.035 146.97 146.452 149.852 145.854 152.761C144.685 158.361 150.285 163.962 155.886 162.793C160.1 161.923 163.362 157.627 162.955 153.576C162.655 150.722 160.508 147.785 157.789 146.453C156.13 145.665 153.575 145.474 151.889 146.018Z" fill="#DBDBDB"/>
<path d="M220.357 146.018C217.503 146.97 214.92 149.852 214.322 152.761C213.153 158.361 218.753 163.962 224.354 162.793C228.568 161.923 231.83 157.627 231.423 153.576C231.123 150.722 228.976 147.785 226.257 146.453C224.598 145.665 222.043 145.474 220.357 146.018Z" fill="#DBDBDB"/>
<path d="M288.825 146.018C285.97 146.97 283.388 149.852 282.79 152.761C281.62 158.361 287.221 163.962 292.822 162.793C297.036 161.923 300.298 157.627 299.89 153.576C299.591 150.722 297.444 147.785 294.725 146.453C293.066 145.665 290.511 145.474 288.825 146.018Z" fill="#DBDBDB"/>
<path d="M14.9532 214.435C12.0985 215.386 9.51568 218.268 8.91756 221.177C7.74849 226.778 13.3491 232.378 18.9497 231.209C23.1638 230.339 26.4263 226.044 26.0185 221.993C25.7194 219.138 23.5716 216.202 20.8529 214.87C19.1944 214.081 16.6388 213.891 14.9532 214.435Z" fill="#DBDBDB"/>
<path d="M83.4212 214.435C80.5665 215.386 77.9837 218.268 77.3856 221.177C76.2165 226.778 81.8171 232.378 87.4178 231.209C91.6318 230.339 94.8943 226.044 94.4865 221.993C94.1875 219.138 92.0396 216.202 89.3209 214.87C87.6624 214.081 85.1068 213.891 83.4212 214.435Z" fill="#DBDBDB"/>
<path d="M151.889 214.435C149.035 215.386 146.452 218.268 145.854 221.177C144.685 226.778 150.285 232.378 155.886 231.209C160.1 230.339 163.362 226.044 162.955 221.993C162.655 219.138 160.508 216.202 157.789 214.87C156.13 214.081 153.575 213.891 151.889 214.435Z" fill="#DBDBDB"/>
<path d="M220.357 214.435C217.503 215.386 214.92 218.268 214.322 221.177C213.153 226.778 218.753 232.378 224.354 231.209C228.568 230.339 231.83 226.044 231.423 221.993C231.123 219.138 228.976 216.202 226.257 214.87C224.598 214.081 222.043 213.891 220.357 214.435Z" fill="#DBDBDB"/>
<path d="M288.825 214.435C285.97 215.386 283.388 218.268 282.79 221.177C281.62 226.778 287.221 232.378 292.822 231.209C297.036 230.339 300.298 226.044 299.89 221.993C299.591 219.138 297.444 216.202 294.725 214.87C293.066 214.081 290.511 213.891 288.825 214.435Z" fill="#DBDBDB"/>
<path d="M14.9532 282.851C12.0985 283.803 9.51568 286.685 8.91756 289.594C7.74849 295.195 13.3491 300.795 18.9497 299.626C23.1638 298.756 26.4263 294.461 26.0185 290.41C25.7194 287.555 23.5716 284.619 20.8529 283.286C19.1944 282.498 16.6388 282.308 14.9532 282.851Z" fill="#DBDBDB"/>
<path d="M83.4212 282.851C80.5665 283.803 77.9837 286.685 77.3856 289.594C76.2165 295.195 81.8171 300.795 87.4178 299.626C91.6318 298.756 94.8943 294.461 94.4865 290.41C94.1875 287.555 92.0396 284.619 89.3209 283.286C87.6624 282.498 85.1068 282.308 83.4212 282.851Z" fill="#DBDBDB"/>
<path d="M151.889 282.851C149.035 283.803 146.452 286.685 145.854 289.594C144.685 295.195 150.285 300.795 155.886 299.626C160.1 298.756 163.362 294.461 162.955 290.41C162.655 287.555 160.508 284.619 157.789 283.286C156.13 282.498 153.575 282.308 151.889 282.851Z" fill="#DBDBDB"/>
<path d="M220.357 282.851C217.503 283.803 214.92 286.685 214.322 289.594C213.153 295.195 218.753 300.795 224.354 299.626C228.568 298.756 231.83 294.461 231.423 290.41C231.123 287.555 228.976 284.619 226.257 283.286C224.598 282.498 222.043 282.308 220.357 282.851Z" fill="#DBDBDB"/>
<path d="M288.825 282.851C285.97 283.803 283.388 286.685 282.79 289.594C281.62 295.195 287.221 300.795 292.822 299.626C297.036 298.756 300.298 294.461 299.89 290.41C299.591 287.555 297.444 284.619 294.725 283.286C293.066 282.498 290.511 282.308 288.825 282.851Z" fill="#DBDBDB"/>
</g>
<defs>
<clipPath id="clip0_104_1456">
<rect width="348" height="348" fill="white"/>
</clipPath>
</defs>
</svg>
