<svg width="72" height="72" viewBox="0 0 72 72" fill="none" xmlns="http://www.w3.org/2000/svg">
<g clip-path="url(#clip0_104_1987)">
<path d="M35.1566 27.1891C30.5404 27.1891 26.7849 30.9446 26.7849 35.5606C26.7849 40.1768 30.5404 43.9323 35.1566 43.9323C37.3177 43.9323 39.2901 43.1091 40.777 41.7597C40.9951 41.5264 41.2185 41.2983 41.4472 41.0754C42.7411 39.6012 43.5281 37.6717 43.5281 35.5606C43.5281 30.9446 39.7726 27.1891 35.1566 27.1891Z" fill="black"/>
<path d="M22.5671 35.5607C22.5671 28.6183 28.2151 22.9704 35.1575 22.9704C42.0999 22.9704 47.7478 28.6183 47.7478 35.5607C47.7478 36.0156 47.7229 36.4648 47.6757 36.9073C49.1628 36.2682 50.7402 35.801 52.3828 35.5292C52.3656 26.0453 44.6453 18.335 35.1575 18.335C25.6591 18.335 17.9316 26.0623 17.9316 35.5607C17.9316 45.0591 25.6591 52.7865 35.1575 52.7865C35.2616 52.7865 35.3644 52.7819 35.468 52.7801C35.7072 51.1324 36.1433 49.5478 36.7515 48.0507C36.2293 48.1169 35.6974 48.1513 35.1575 48.1513C28.2151 48.1511 22.5671 42.5031 22.5671 35.5607Z" fill="black"/>
<path d="M55.7369 72C64.7049 72 72.0009 64.704 72.0009 55.736C72.0009 46.768 64.7049 39.4719 55.7369 39.4719C51.3926 39.4719 47.4406 41.184 44.5203 43.969C44.2775 44.239 44.0233 44.4983 43.7585 44.7463C41.0988 47.6429 39.4727 51.503 39.4727 55.736C39.4727 64.704 46.7687 72 55.7369 72ZM53.6375 44.6265H57.8563V53.6267H63.05V57.8454H53.6375V44.6265Z" fill="#FF4E4E"/>
<path d="M35.2934 57.0029C35.2477 57.0032 35.2024 57.0053 35.1567 57.0053C23.3321 57.0053 13.7121 47.3853 13.7121 35.5607C13.7121 23.7361 23.3321 14.1162 35.1567 14.1162C46.8849 14.1162 56.4425 23.5804 56.5975 35.2725C61.9538 35.4953 66.7848 37.7843 70.3132 41.362V28.4276L64.9908 27.6065C64.2628 24.7158 63.1232 21.9669 61.5894 19.4019L64.7741 15.0552L55.2579 5.53894L50.9112 8.72367C48.3465 7.18988 45.5974 6.05011 42.7065 5.32223L41.8856 0H28.4278L27.6067 5.32237C24.716 6.05039 21.967 7.19002 19.402 8.72381L15.0553 5.53908L5.53908 15.0553L8.72381 19.402C7.19002 21.9669 6.05025 24.716 5.32237 27.6067L0 28.4276V41.8854L5.32237 42.7065C6.05039 45.5974 7.19002 48.3463 8.72381 50.9112L5.53908 55.2579L15.0553 64.7741L19.402 61.5894C21.9669 63.1232 24.716 64.263 27.6067 64.9908L28.4278 70.3132H41.3622C37.8747 66.8741 35.612 62.1973 35.2934 57.0029Z" fill="black"/>
</g>
<defs>
<clipPath id="clip0_104_1987">
<rect width="72" height="72" fill="white"/>
</clipPath>
</defs>
</svg>
