<svg width="72" height="72" viewBox="0 0 72 72" fill="none" xmlns="http://www.w3.org/2000/svg">
<g clip-path="url(#clip0_104_1996)">
<path d="M35.9978 11.3247C26.9977 11.3247 19.6758 18.6468 19.6758 27.6467C19.6758 36.6466 26.9979 43.9687 35.9978 43.9687C44.9977 43.9687 52.3198 36.6467 52.3198 27.6467C52.3198 18.6466 44.9977 11.3247 35.9978 11.3247ZM34.1707 35.8881L25.576 27.2933L28.5591 24.3102L34.1707 29.9216L43.4364 20.6559L46.4196 23.6391L34.1707 35.8881Z" fill="#FF4E4E"/>
<path d="M45.5307 52.2131C50.9538 52.2131 55.8412 48.2881 56.7985 42.7544C62.1743 39.9042 64.4163 33.1729 61.7043 27.6466C64.3951 22.1644 62.2122 15.4237 56.7955 12.5217C55.8149 6.9961 51.0077 3.08032 45.5456 3.08032C45.022 3.08032 44.4925 3.11632 43.9599 3.19029C41.7593 1.07102 38.8759 0.000140642 35.9888 1.40422e-08C33.1214 -0.000140614 30.2502 1.05598 28.0384 3.19015C27.5121 3.11604 26.9868 3.08003 26.4674 3.07989C21.0442 3.07933 16.1568 7.00482 15.1996 12.5385C9.82015 15.3898 7.58599 22.1218 10.2927 27.6489C7.60385 33.1313 9.78668 39.8694 15.2027 42.7713C16.1615 48.271 21.0366 52.2207 26.5154 52.2207C27.0285 52.2207 27.5464 52.1861 28.0673 52.1148C30.2558 54.2329 33.1232 55.2954 35.9962 55.2954C38.8693 55.2954 41.7476 54.2333 43.9599 52.1027C44.4859 52.1771 45.0113 52.2131 45.5307 52.2131ZM15.4581 27.6466C15.4581 16.3203 24.6726 7.10579 35.9989 7.10579C47.3252 7.10579 56.5397 16.3203 56.5397 27.6466C56.5397 38.9729 47.3252 48.1875 35.9989 48.1875C24.6727 48.1875 15.4581 38.9729 15.4581 27.6466Z" fill="black"/>
<path d="M26.6529 56.4391C26.6073 56.4395 26.5617 56.4396 26.5162 56.4396C22.8698 56.4396 19.3038 55.1501 16.4748 52.8085C16.0626 52.4673 15.6711 52.1059 15.2988 51.7279L9.28516 62.1439L19.6781 63.8544L26.3558 71.9999L33.6643 59.3414C31.1106 58.9648 28.7102 57.9739 26.6529 56.4391Z" fill="black"/>
<path d="M55.53 52.8077C52.7088 55.1448 49.1574 56.4319 45.5299 56.4319C45.4749 56.4319 45.4199 56.4317 45.365 56.4311C43.2979 57.9691 40.8909 58.9625 38.334 59.3406L45.6428 72L52.3206 63.8546L62.7135 62.1441L56.7013 51.7305C56.3304 52.1074 55.9406 52.4676 55.53 52.8077Z" fill="black"/>
</g>
<defs>
<clipPath id="clip0_104_1996">
<rect width="72" height="72" fill="white"/>
</clipPath>
</defs>
</svg>
