<svg width="294" height="348" viewBox="0 0 294 348" fill="none" xmlns="http://www.w3.org/2000/svg">
<g clip-path="url(#clip0_104_1558)">
<path d="M29.4163 9.10777C25.311 10.4671 22.5378 14.9803 23.3807 18.9496C24.0603 22.185 27.0782 25.2028 30.2863 25.8825C35.5607 26.9971 41.0253 22.0218 40.4816 16.6659C40.1825 13.8112 38.0347 10.875 35.316 9.54277C33.6575 8.75433 31.1019 8.56402 29.4163 9.10777Z" fill="#DBDBDB"/>
<path d="M97.8873 9.1078C95.0326 10.0594 92.4498 12.9412 91.8516 15.8503C90.6826 21.4509 96.2832 27.0516 101.884 25.8825C106.098 25.0125 109.36 20.7169 108.953 16.6659C108.654 13.8112 106.506 10.875 103.787 9.5428C102.129 8.75437 99.5729 8.56405 97.8873 9.1078Z" fill="#DBDBDB"/>
<path d="M166.355 9.1078C163.501 10.0594 160.918 12.9412 160.32 15.8503C159.151 21.4509 164.751 27.0516 170.352 25.8825C174.566 25.0125 177.828 20.7169 177.421 16.6659C177.122 13.8112 174.974 10.875 172.255 9.5428C170.597 8.75437 168.041 8.56405 166.355 9.1078Z" fill="#DBDBDB"/>
<path d="M234.823 9.1078C231.968 10.0594 229.386 12.9412 228.787 15.8503C227.618 21.4509 233.219 27.0516 238.82 25.8825C243.034 25.0125 246.296 20.7169 245.888 16.6659C245.589 13.8112 243.441 10.875 240.723 9.5428C239.064 8.75437 236.509 8.56405 234.823 9.1078Z" fill="#DBDBDB"/>
<path d="M29.4163 77.5876C25.311 78.947 22.5378 83.4601 23.3807 87.4295C24.0603 90.6648 27.0782 93.6826 30.2863 94.3623C35.5607 95.477 41.0253 90.5017 40.4816 85.1458C40.1825 82.2911 38.0347 79.3548 35.316 78.0226C33.6575 77.2342 31.1019 77.0439 29.4163 77.5876Z" fill="#DBDBDB"/>
<path d="M97.8873 77.5875C95.0326 78.5391 92.4498 81.421 91.8516 84.33C90.6826 89.9307 96.2832 95.5313 101.884 94.3622C106.098 93.4922 109.36 89.1966 108.953 85.1457C108.654 82.291 106.506 79.3547 103.787 78.0225C102.129 77.2341 99.5729 77.0438 97.8873 77.5875Z" fill="#DBDBDB"/>
<path d="M166.355 77.5875C163.501 78.5391 160.918 81.421 160.32 84.33C159.151 89.9307 164.751 95.5313 170.352 94.3622C174.566 93.4922 177.828 89.1966 177.421 85.1457C177.122 82.291 174.974 79.3547 172.255 78.0225C170.597 77.2341 168.041 77.0438 166.355 77.5875Z" fill="#DBDBDB"/>
<path d="M234.823 77.5875C231.968 78.5391 229.386 81.421 228.787 84.33C227.618 89.9307 233.219 95.5313 238.82 94.3622C243.034 93.4922 246.296 89.1966 245.888 85.1457C245.589 82.291 243.441 79.3547 240.723 78.0225C239.064 77.2341 236.509 77.0438 234.823 77.5875Z" fill="#DBDBDB"/>
<path d="M29.4212 146.018C26.5665 146.97 23.9837 149.852 23.3856 152.761C22.2165 158.361 27.8171 163.962 33.4178 162.793C37.6318 161.923 40.8943 157.627 40.4865 153.576C40.1875 150.722 38.0396 147.785 35.3209 146.453C33.6624 145.665 31.1068 145.474 29.4212 146.018Z" fill="#DBDBDB"/>
<path d="M97.8892 146.018C95.0345 146.97 92.4517 149.852 91.8536 152.761C90.6845 158.361 96.2852 163.962 101.886 162.793C106.1 161.923 109.362 157.627 108.955 153.576C108.655 150.722 106.508 147.785 103.789 146.453C102.13 145.665 99.5748 145.474 97.8892 146.018Z" fill="#DBDBDB"/>
<path d="M166.357 146.018C163.503 146.97 160.92 149.852 160.322 152.761C159.153 158.361 164.753 163.962 170.354 162.793C174.568 161.923 177.83 157.627 177.423 153.576C177.123 150.722 174.976 147.785 172.257 146.453C170.598 145.665 168.043 145.474 166.357 146.018Z" fill="#DBDBDB"/>
<path d="M234.825 146.018C231.971 146.97 229.388 149.852 228.79 152.761C227.621 158.361 233.221 163.962 238.822 162.793C243.036 161.923 246.298 157.627 245.891 153.576C245.592 150.722 243.444 147.785 240.725 146.453C239.067 145.665 236.511 145.474 234.825 146.018Z" fill="#DBDBDB"/>
<path d="M29.4212 214.435C26.5665 215.386 23.9837 218.268 23.3856 221.177C22.2165 226.778 27.8171 232.378 33.4178 231.209C37.6318 230.339 40.8943 226.044 40.4865 221.993C40.1875 219.138 38.0396 216.202 35.3209 214.87C33.6624 214.081 31.1068 213.891 29.4212 214.435Z" fill="#DBDBDB"/>
<path d="M97.8892 214.435C95.0345 215.386 92.4517 218.268 91.8536 221.177C90.6845 226.778 96.2852 232.378 101.886 231.209C106.1 230.339 109.362 226.044 108.955 221.993C108.655 219.138 106.508 216.202 103.789 214.87C102.13 214.081 99.5748 213.891 97.8892 214.435Z" fill="#DBDBDB"/>
<path d="M166.357 214.435C163.503 215.386 160.92 218.268 160.322 221.177C159.153 226.778 164.753 232.378 170.354 231.209C174.568 230.339 177.83 226.044 177.423 221.993C177.123 219.138 174.976 216.202 172.257 214.87C170.598 214.081 168.043 213.891 166.357 214.435Z" fill="#DBDBDB"/>
<path d="M234.825 214.435C231.971 215.386 229.388 218.268 228.79 221.177C227.621 226.778 233.221 232.378 238.822 231.209C243.036 230.339 246.298 226.044 245.891 221.993C245.592 219.138 243.444 216.202 240.725 214.87C239.067 214.081 236.511 213.891 234.825 214.435Z" fill="#DBDBDB"/>
<path d="M29.4212 282.851C26.5665 283.803 23.9837 286.685 23.3856 289.594C22.2165 295.195 27.8171 300.795 33.4178 299.626C37.6318 298.756 40.8943 294.461 40.4865 290.41C40.1875 287.555 38.0396 284.619 35.3209 283.286C33.6624 282.498 31.1068 282.308 29.4212 282.851Z" fill="#DBDBDB"/>
<path d="M97.8892 282.851C95.0345 283.803 92.4517 286.685 91.8536 289.594C90.6845 295.195 96.2852 300.795 101.886 299.626C106.1 298.756 109.362 294.461 108.955 290.41C108.655 287.555 106.508 284.619 103.789 283.286C102.13 282.498 99.5748 282.308 97.8892 282.851Z" fill="#DBDBDB"/>
<path d="M166.357 282.851C163.503 283.803 160.92 286.685 160.322 289.594C159.153 295.195 164.753 300.795 170.354 299.626C174.568 298.756 177.83 294.461 177.423 290.41C177.123 287.555 174.976 284.619 172.257 283.286C170.598 282.498 168.043 282.308 166.357 282.851Z" fill="#DBDBDB"/>
<path d="M234.825 282.851C231.971 283.803 229.388 286.685 228.79 289.594C227.621 295.195 233.221 300.795 238.822 299.626C243.036 298.756 246.298 294.461 245.891 290.41C245.592 287.555 243.444 284.619 240.725 283.286C239.067 282.498 236.511 282.308 234.825 282.851Z" fill="#DBDBDB"/>
</g>
<defs>
<clipPath id="clip0_104_1558">
<rect width="348" height="348" fill="white" transform="translate(-54)"/>
</clipPath>
</defs>
</svg>
