<svg width="184" height="52" viewBox="0 0 184 52" fill="none" xmlns="http://www.w3.org/2000/svg">
<g clip-path="url(#clip0_104_1778)">
<path d="M25.1376 1.18858C31.9408 1.18858 37.7354 3.57245 42.5032 8.3402C43.6585 9.64215 44.1902 11.1642 44.0802 12.9429C43.9702 14.7216 43.31 16.1703 42.0814 17.3439C40.8528 18.4992 39.2941 19.1226 37.387 19.1776C35.4799 19.251 33.9212 18.6275 32.6926 17.3439C30.5838 15.4368 28.0532 14.4832 25.1376 14.4832C23.5605 14.4832 22.0935 14.8133 20.6999 15.4551C19.3062 16.0969 18.0776 16.9588 17.0141 18.004C15.9505 19.0676 15.1253 20.2779 14.5018 21.6349C13.8967 22.9918 13.5849 24.4222 13.5849 25.9258C13.5849 27.5029 13.8967 28.9699 14.5018 30.3635C15.107 31.7572 15.9688 32.9858 17.0507 34.0494C18.1326 35.1129 19.3613 35.9381 20.7366 36.5616C22.0935 37.1667 23.5605 37.4418 25.1376 37.3868C28.1266 37.3868 30.6572 36.4699 32.6926 34.6362C33.9212 33.2792 35.4799 32.6007 37.387 32.6007C39.2941 32.6007 40.8528 33.2792 42.0814 34.6362C42.6866 35.1863 43.1633 35.8281 43.5117 36.5799C43.8602 37.3318 44.0435 38.1203 44.0802 38.9271C44.1169 39.7523 43.9885 40.5408 43.7318 41.3293C43.4567 42.1179 43.0533 42.8147 42.5032 43.4198C40.1193 45.8037 37.497 47.6008 34.6364 48.8294C31.7757 50.058 28.6034 50.6631 25.1376 50.6631C21.7268 50.6631 18.5361 50.003 15.5287 48.6643C12.5214 47.344 9.91745 45.547 7.66193 43.2915C5.40642 41.0359 3.62768 38.4137 2.28905 35.4247C0.968744 32.4357 0.308594 29.2633 0.308594 25.9258C0.308594 22.6618 0.968744 19.5261 2.30738 16.5187C3.62768 13.5297 5.4431 10.8891 7.71695 8.65194C9.9908 6.39643 12.6314 4.59935 15.6387 3.24238C18.6278 1.8854 21.8001 1.18858 25.1376 1.18858Z" fill="white"/>
<path d="M55.4861 50.6631C53.6523 50.6631 52.112 50.0763 50.8834 48.8661C49.6548 47.6741 48.9763 46.0971 48.8479 44.1166V25.2107C48.9213 21.9466 49.6181 18.8659 50.9384 15.9686C52.2587 13.0713 54.0374 10.559 56.2563 8.41355C58.4751 6.26806 61.0607 4.56268 64.0313 3.29739C66.9837 2.0321 70.1377 1.33528 73.4752 1.18858C75.3823 1.18858 76.9593 1.83039 78.2246 3.13235C79.4899 4.43431 80.1867 5.993 80.3151 7.82675C80.3151 9.66048 79.6732 11.2192 78.3713 12.4845C77.0693 13.7497 75.4739 14.4099 73.5668 14.4832C71.9898 14.4832 70.5412 14.7766 69.1659 15.3451C67.8089 15.9319 66.6169 16.7204 65.59 17.7473C64.5631 18.7742 63.7563 19.9845 63.1328 21.3781C62.5277 22.7718 62.2159 24.2938 62.2159 25.9258V44.5201C62.0876 46.2988 61.4091 47.7475 60.2172 48.9211C59.0436 50.0763 57.4665 50.6631 55.4861 50.6631Z" fill="white"/>
<path d="M104.832 1.18858C108.17 1.18858 111.342 1.83039 114.331 3.13235C117.32 4.43431 119.961 6.19471 122.198 8.45023C124.453 10.7057 126.232 13.328 127.571 16.317C128.891 19.3243 129.57 22.5517 129.57 26.0175C129.57 29.4283 128.928 32.6007 127.626 35.5714C126.324 38.542 124.582 41.146 122.363 43.3831C120.144 45.6387 117.54 47.3991 114.551 48.701C111.544 50.003 108.316 50.6448 104.851 50.6448C101.44 50.6448 98.2492 50.0397 95.2418 48.811C92.2345 47.5824 89.6306 45.8587 87.3751 43.6582C85.1195 41.4394 83.3591 38.8354 82.0572 35.8464C80.7552 32.8574 80.1134 29.575 80.1134 26.0359C80.1134 22.6251 80.7369 19.4527 82.0022 16.482C83.2675 13.5114 84.9912 10.9258 87.21 8.70695C89.4289 6.48811 92.0511 4.72771 95.0768 3.38908C98.1208 2.06878 101.367 1.33528 104.832 1.18858ZM104.832 14.5749C103.255 14.5749 101.807 14.8683 100.431 15.4368C99.0744 16.0236 97.8641 16.8121 96.8005 17.839C95.737 18.8659 94.9118 20.0762 94.2883 21.4698C93.6832 22.8635 93.3714 24.3855 93.3714 26.0175C93.3714 27.5762 93.6832 29.0616 94.2883 30.4552C94.8934 31.8489 95.737 33.0775 96.8005 34.141C97.8641 35.2046 99.056 36.0298 100.431 36.6533C101.788 37.2584 103.255 37.5702 104.832 37.5702C106.391 37.5702 107.876 37.2584 109.27 36.6533C110.664 36.0481 111.874 35.2046 112.901 34.141C113.928 33.0775 114.735 31.8672 115.358 30.4552C115.963 29.0616 116.275 27.5762 116.275 26.0175C116.147 22.8818 115.01 20.2229 112.901 18.0407C110.792 15.8769 108.115 14.7216 104.832 14.5749Z" fill="white"/>
<path d="M158.579 1.18858C161.917 1.18858 165.089 1.83039 168.078 3.13235C171.067 4.43431 173.708 6.19471 175.945 8.45023C178.2 10.7057 179.979 13.328 181.318 16.317C182.638 19.3243 183.316 22.5517 183.316 26.0175C183.316 29.4283 182.675 32.6007 181.373 35.5714C180.071 38.542 178.329 41.146 176.11 43.3831C173.891 45.6387 171.287 47.3991 168.298 48.701C165.291 50.003 162.063 50.6448 158.598 50.6448C155.187 50.6448 151.996 50.0397 148.989 48.811C145.981 47.5824 143.377 45.8587 141.122 43.6582C138.866 41.4394 137.106 38.8354 135.804 35.8464C134.502 32.8574 133.86 29.575 133.86 26.0359C133.86 22.6251 134.484 19.4527 135.749 16.482C137.014 13.5114 138.738 10.9258 140.957 8.70695C143.176 6.48811 145.798 4.72771 148.824 3.38908C151.868 2.06878 155.113 1.33528 158.579 1.18858ZM158.579 14.5749C157.002 14.5749 155.553 14.8683 154.178 15.4368C152.821 16.0236 151.611 16.8121 150.547 17.839C149.484 18.8659 148.659 20.0762 148.035 21.4698C147.43 22.8635 147.118 24.3855 147.118 26.0175C147.118 27.5762 147.43 29.0616 148.035 30.4552C148.64 31.8489 149.484 33.0775 150.547 34.141C151.611 35.2046 152.803 36.0298 154.178 36.6533C155.535 37.2584 157.002 37.5702 158.579 37.5702C160.138 37.5702 161.623 37.2584 163.017 36.6533C164.411 36.0481 165.621 35.2046 166.648 34.141C167.675 33.0775 168.481 31.8672 169.105 30.4552C169.71 29.0616 170.022 27.5762 170.022 26.0175C169.893 22.8818 168.756 20.2229 166.648 18.0407C164.539 15.8769 161.862 14.7216 158.579 14.5749Z" fill="white"/>
</g>
<defs>
<clipPath id="clip0_104_1778">
<rect width="183.375" height="51.345" fill="white" transform="translate(0.125 0.253357)"/>
</clipPath>
</defs>
</svg>
