<svg width="252" height="110" viewBox="0 0 252 110" fill="none" xmlns="http://www.w3.org/2000/svg">
<path d="M67.397 44.5584C67.4524 44.6022 67.5078 44.646 67.5649 44.6912C67.9018 44.9626 68.2237 45.2487 68.5429 45.5406C68.5982 45.5903 68.6537 45.6399 68.7091 45.6896C68.9827 45.9355 69.2475 46.1823 69.4841 46.465C69.5958 46.5964 69.7139 46.7209 69.832 46.8467C71.7938 49.0095 73.1837 51.7931 73.9448 54.5984C73.9591 54.6504 73.9733 54.7024 73.988 54.756C75.2044 59.2738 74.8579 64.3291 73.0172 68.6217C72.9954 68.6731 72.9736 68.7244 72.9511 68.7774C72.1523 70.6476 71.0305 72.4273 69.6299 73.9072C69.5115 74.0324 69.3985 74.1612 69.2863 74.292C69.0917 74.5155 68.8829 74.7192 68.6656 74.9205C68.6273 74.9562 68.5889 74.9919 68.5494 75.0287C68.2479 75.3071 67.9398 75.5729 67.6152 75.8243C67.5844 75.8485 67.5535 75.8727 67.5217 75.8976C65.1048 77.787 62.2095 78.9843 59.1576 79.3164C59.0886 79.3242 59.0886 79.3242 59.0182 79.332C58.4815 79.3846 57.9435 79.3843 57.4047 79.3847C57.354 79.3847 57.3032 79.3847 57.2509 79.3848C56.4212 79.3838 55.6117 79.3495 54.7924 79.2073C54.7136 79.1937 54.7136 79.1937 54.6332 79.1798C53.0161 78.888 51.4992 78.2994 50.1544 77.3521C50.0913 77.3078 50.0913 77.3078 50.0269 77.2625C49.4214 76.8336 48.8488 76.377 48.2992 75.8788C48.2675 75.8503 48.2358 75.8217 48.2032 75.7922C47.5307 75.1834 46.9183 74.5461 46.345 73.8429C46.3136 73.8043 46.2822 73.7658 46.2498 73.7261C46.2201 73.6894 46.1904 73.6528 46.1598 73.615C46.1331 73.5821 46.1064 73.5491 46.0789 73.5152C46.0148 73.4329 45.9561 73.3465 45.8983 73.2597C45.8713 81.0115 45.8713 81.0115 45.8437 88.9199C43.0527 88.9199 40.2617 88.9199 37.3861 88.9199C37.3861 73.5063 37.3861 58.0928 37.3861 42.2121C39.979 42.2121 42.572 42.2121 45.2435 42.2121C45.2615 44.1208 45.2795 46.0295 45.2981 47.996C45.5141 47.6899 45.7302 47.3838 45.9528 47.0684C46.1142 46.865 46.2759 46.6657 46.4439 46.4682C46.4915 46.4112 46.539 46.3541 46.5865 46.297C47.2742 45.4731 47.9928 44.6705 48.8448 44.0128C48.874 43.99 48.9032 43.9672 48.9333 43.9438C50.9572 42.3764 53.4371 41.3799 55.9928 41.1754C56.0513 41.1703 56.0513 41.1703 56.1109 41.1652C60.1247 40.8346 64.2411 42.0563 67.397 44.5584ZM49.4054 52.302C49.2901 52.4077 49.1722 52.5091 49.0528 52.6102C48.3459 53.228 47.7737 54.0666 47.3177 54.8817C47.2637 54.9781 47.2082 55.0737 47.1526 55.1692C45.7864 57.5694 45.5095 60.5161 46.2257 63.1651C46.8539 65.3037 48.0706 67.2348 49.827 68.6217C49.877 68.6617 49.927 68.7017 49.9785 68.7429C51.337 69.7995 52.934 70.4374 54.6287 70.6951C54.7104 70.7076 54.7104 70.7076 54.7937 70.7203C57.2427 71.0061 59.8028 70.2366 61.7381 68.7238C62.0563 68.4686 62.3547 68.1936 62.6498 67.9123C62.6951 67.8705 62.7404 67.8288 62.7871 67.7857C63.4096 67.1933 63.919 66.4755 64.3413 65.7297C64.3604 65.6969 64.3795 65.6641 64.3992 65.6302C65.8253 63.1644 66.1275 60.1305 65.4047 57.3919C64.6373 54.6481 62.8945 52.3716 60.4286 50.9577C56.8681 48.9723 52.3887 49.5503 49.4054 52.302Z" fill="#3DB349"/>
<path d="M159.176 31.6265C161.931 31.6265 164.686 31.6265 167.524 31.6265C167.524 36.8484 167.524 42.0702 167.524 47.4504C167.56 47.4504 167.596 47.4504 167.633 47.4504C167.646 47.4217 167.658 47.393 167.671 47.3634C167.767 47.1873 167.888 47.0341 168.012 46.8774C168.038 46.8439 168.065 46.8104 168.092 46.7759C168.318 46.4922 168.559 46.2243 168.807 45.9596C168.922 45.8357 169.034 45.71 169.144 45.5815C169.467 45.2096 169.823 44.8779 170.198 44.5584C170.247 44.5154 170.296 44.4723 170.346 44.428C173.221 41.9258 176.575 40.9583 180.36 41.2163C184.344 41.5246 188.478 43.3663 191.141 46.4239C191.168 46.4574 191.196 46.4908 191.225 46.5253C191.334 46.6552 191.451 46.7775 191.567 46.9013C194.282 49.8917 195.822 53.9518 196.225 57.9269C196.23 57.9725 196.235 58.0181 196.24 58.0651C196.286 58.5195 196.301 58.9747 196.314 59.4309C196.315 59.4728 196.316 59.5148 196.318 59.558C196.46 64.8371 194.786 69.9868 191.205 73.9145C191.122 74.0077 191.039 74.1009 190.956 74.1942C190.607 74.5821 190.239 74.9406 189.841 75.2786C189.773 75.3381 189.773 75.3381 189.703 75.3989C187.232 77.509 184.177 78.8451 180.947 79.2073C180.906 79.2125 180.865 79.2176 180.823 79.2229C180.272 79.2839 179.717 79.2752 179.163 79.2755C179.081 79.2756 179.081 79.2756 178.997 79.2757C178.18 79.2748 177.386 79.2531 176.582 79.0982C176.534 79.0894 176.486 79.0806 176.437 79.0716C174.325 78.6746 172.305 77.7778 170.634 76.4245C170.587 76.3867 170.587 76.3867 170.539 76.3482C169.75 75.7106 169.021 74.987 168.397 74.1873C168.311 74.086 168.224 73.9848 168.138 73.8838C167.745 73.4139 167.358 72.9162 167.046 72.3882C166.987 72.2699 166.987 72.2699 166.869 72.223C166.869 74.2037 166.869 76.1844 166.869 78.2252C164.33 78.2252 161.791 78.2252 159.176 78.2252C159.176 62.8476 159.176 47.47 159.176 31.6265ZM171.016 52.2521C170.946 52.3102 170.875 52.3682 170.805 52.426C170.637 52.5707 170.494 52.7322 170.35 52.9014C170.287 52.9759 170.221 53.049 170.154 53.1205C168.262 55.1459 167.45 57.9914 167.518 60.7118C167.612 63.3636 168.745 65.903 170.58 67.8032C170.645 67.8727 170.645 67.8727 170.712 67.9437C172.437 69.7369 174.889 70.7177 177.351 70.8143C180.044 70.8602 182.485 69.7891 184.439 67.9669C186.354 66.1057 187.513 63.3901 187.568 60.7238C187.57 60.5577 187.57 60.3916 187.57 60.2255C187.57 60.1817 187.57 60.1379 187.57 60.0928C187.559 57.1941 186.423 54.5595 184.419 52.4874C184.084 52.1606 183.725 51.8734 183.348 51.5973C183.317 51.5746 183.286 51.5519 183.254 51.5285C179.456 48.7796 174.478 49.2153 171.016 52.2521Z" fill="#767272"/>
<path d="M136.64 41.2129C136.698 41.213 136.756 41.2131 136.816 41.2132C137.785 41.2156 138.735 41.2603 139.696 41.3937C139.753 41.4013 139.81 41.4089 139.868 41.4167C141.712 41.6701 143.537 42.2071 145.207 43.0306C145.281 43.0667 145.281 43.0667 145.356 43.1034C146.352 43.5921 147.311 44.1604 148.153 44.8858C148.215 44.9374 148.276 44.9889 148.338 45.0404C148.917 45.5275 149.429 46.0367 149.9 46.6319C149.943 46.6845 149.986 46.7372 150.031 46.7914C151.967 49.2013 152.155 51.9295 152.149 54.8934C152.149 55.2072 152.149 55.521 152.149 55.8348C152.149 56.3771 152.149 56.9194 152.148 57.4617C152.147 58.2458 152.147 59.0299 152.147 59.8139C152.147 61.0864 152.146 62.3588 152.145 63.6312C152.144 64.8665 152.143 66.1018 152.143 67.3371C152.143 67.3753 152.143 67.4134 152.143 67.4527C152.143 67.8359 152.142 68.2191 152.142 68.6022C152.142 69.3826 152.142 70.163 152.141 70.9434C152.141 71.0151 152.141 71.0867 152.141 71.1605C152.14 73.5154 152.138 75.8703 152.137 78.2252C149.58 78.2252 147.023 78.2252 144.388 78.2252C144.388 76.5146 144.388 74.804 144.388 73.0415C144.208 73.081 144.208 73.081 144.132 73.2655C144.098 73.3396 144.064 73.4139 144.03 73.4883C143.623 74.3386 143.033 74.9985 142.37 75.6606C142.33 75.7025 142.29 75.7443 142.248 75.7874C140.149 77.9623 136.815 79.2267 133.834 79.3225C129.904 79.386 125.763 78.5817 122.793 75.8247C122.708 75.7483 122.621 75.6751 122.531 75.6046C122.412 75.5077 122.317 75.4126 122.218 75.2957C122.12 75.1803 122.022 75.066 121.918 74.9555C119.955 72.8542 119.118 69.7602 119.169 66.9372C119.172 66.8621 119.176 66.787 119.179 66.7119C119.182 66.6602 119.184 66.6084 119.187 66.555C119.324 63.9789 119.996 61.3922 121.797 59.4648C121.896 59.3576 121.989 59.2472 122.082 59.1342C123.935 57.0217 126.979 56.0582 129.655 55.5914C129.731 55.578 129.808 55.5644 129.885 55.5504C131.666 55.2296 133.481 55.2295 135.284 55.2366C135.592 55.2377 135.9 55.2378 136.208 55.238C136.788 55.2385 137.368 55.2398 137.948 55.2415C138.61 55.2433 139.271 55.2442 139.933 55.245C141.291 55.2467 142.649 55.2496 144.006 55.2532C144.004 54.8601 144 54.467 143.995 54.0739C143.994 53.9404 143.992 53.8069 143.992 53.6734C143.991 53.4806 143.988 53.2879 143.985 53.0951C143.985 53.0067 143.985 53.0067 143.985 52.9165C143.97 52.1303 143.629 51.4922 143.093 50.9289C142.82 50.6693 142.534 50.4704 142.206 50.2878C142.175 50.2705 142.144 50.2532 142.113 50.2354C139.463 48.7676 136.009 48.6944 133.142 49.4782C131.858 49.8493 130.408 50.4522 129.726 51.6733C129.531 52.0703 129.438 52.4096 129.383 52.8524C126.7 52.8524 124.017 52.8524 121.253 52.8524C121.402 49.7232 122.614 47.2173 124.909 45.1041C125.154 44.8908 125.411 44.6962 125.673 44.5039C125.733 44.4583 125.793 44.4127 125.854 44.3671C127.979 42.7817 130.623 41.8687 133.22 41.4585C133.32 41.4425 133.32 41.4425 133.422 41.4262C134.492 41.2667 135.56 41.2091 136.64 41.2129ZM128.728 64.0928C127.95 65.0015 127.892 66.1708 127.964 67.3122C128.061 68.1819 128.481 69.0033 129.11 69.6039C129.166 69.6607 129.166 69.6607 129.224 69.7186C130.304 70.7553 131.93 71.083 133.366 71.2408C133.412 71.2461 133.457 71.2513 133.504 71.2567C134.072 71.3132 134.642 71.3087 135.211 71.3091C135.294 71.3091 135.294 71.3091 135.378 71.3092C136.174 71.3083 136.949 71.2923 137.731 71.1317C137.803 71.1177 137.803 71.1177 137.875 71.1033C139.238 70.8268 140.651 70.3413 141.769 69.4948C141.819 69.4574 141.868 69.4201 141.919 69.3816C142.965 68.5564 143.821 67.5284 144.006 66.1663C144.021 65.8779 144.019 65.59 144.017 65.3013C144.017 65.2189 144.017 65.1365 144.017 65.0541C144.016 64.839 144.015 64.6239 144.014 64.4088C144.013 64.1886 144.012 63.9684 144.012 63.7481C144.011 63.3174 144.009 62.8866 144.006 62.4558C142.606 62.452 141.206 62.4491 139.806 62.4474C139.155 62.4465 138.505 62.4454 137.855 62.4435C137.287 62.4419 136.72 62.4408 136.153 62.4404C135.853 62.4402 135.553 62.4397 135.253 62.4385C131.715 62.395 131.715 62.395 128.728 64.0928Z" fill="#767272"/>
<path d="M215.961 41.2163C216.042 41.2163 216.042 41.2163 216.125 41.2162C219.499 41.2198 222.811 42.2272 225.472 44.3402C225.517 44.3756 225.517 44.3756 225.563 44.4116C226.389 45.0666 227.152 45.8274 227.764 46.6865C227.789 46.7216 227.815 46.7566 227.841 46.7928C229.289 48.8097 229.947 50.9808 229.947 53.4526C227.282 53.4526 224.617 53.4526 221.871 53.4526C221.835 53.2005 221.799 52.9484 221.762 52.6887C221.367 51.3241 220.475 50.1416 219.227 49.4497C218.636 49.1399 218.053 48.8906 217.397 48.76C217.343 48.7479 217.289 48.7358 217.233 48.7233C215.512 48.3916 213.603 48.8088 212.143 49.7591C211.332 50.3094 210.684 51.1033 210.49 52.0831C210.41 52.6647 210.408 53.3371 210.762 53.8339C211.841 55.1511 214.372 55.4578 215.925 55.8697C216.233 55.9515 216.54 56.0341 216.848 56.1166C217.327 56.2452 217.807 56.3736 218.287 56.5017C223.833 57.9825 223.833 57.9825 225.854 59.0728C225.89 59.0915 225.925 59.1101 225.962 59.1294C228.186 60.3039 229.955 62.2427 230.709 64.6643C231.488 67.3385 231.243 70.447 229.902 72.8914C229.506 73.5541 229.058 74.1717 228.528 74.733C228.469 74.8033 228.409 74.8738 228.351 74.9445C227.876 75.4871 227.311 75.9499 226.727 76.37C226.697 76.3917 226.667 76.4135 226.636 76.4359C224.076 78.2594 220.874 79.0386 217.778 79.2619C217.705 79.268 217.631 79.2741 217.557 79.2803C213.032 79.6216 208.319 78.6038 204.799 75.6231C204.142 75.0566 203.562 74.4478 203.046 73.7508C202.999 73.6897 202.953 73.6286 202.907 73.5675C202.538 73.0748 202.238 72.5503 201.955 72.0048C201.937 71.9701 201.918 71.9354 201.9 71.8997C201.127 70.3958 200.863 68.7716 200.863 67.0939C203.546 67.0939 206.229 67.0939 208.993 67.0939C209.048 67.364 209.102 67.6341 209.157 67.9124C209.657 69.3817 210.938 70.3783 212.285 71.0454C214.534 72.1028 217.203 72.0636 219.525 71.2408C220.553 70.8504 221.578 70.2999 222.089 69.2765C222.385 68.5464 222.508 67.7177 222.202 66.97C221.828 66.2137 221.055 65.8997 220.299 65.6355C220.208 65.6046 220.116 65.574 220.025 65.5437C219.975 65.5272 219.925 65.5108 219.874 65.4938C219.365 65.3277 218.851 65.1888 218.332 65.0547C218.232 65.0283 218.131 65.0019 218.03 64.9754C217.818 64.9198 217.606 64.8644 217.394 64.8091C217.061 64.7226 216.729 64.6354 216.397 64.5482C215.657 64.3541 214.918 64.1605 214.178 63.9672C209.341 62.7031 209.341 62.7031 207.247 61.5828C207.212 61.5644 207.178 61.546 207.142 61.5271C204.843 60.3119 202.85 58.2694 202.045 55.7546C201.976 55.5255 201.916 55.2945 201.859 55.0623C201.848 55.0183 201.837 54.9743 201.826 54.9291C201.648 54.1568 201.607 53.3891 201.61 52.6C201.61 52.5547 201.61 52.5093 201.61 52.4626C201.613 51.7455 201.645 51.0466 201.791 50.3424C201.8 50.2965 201.81 50.2506 201.819 50.2033C202.382 47.5413 204.07 45.2868 206.32 43.7945C209.182 41.9403 212.584 41.2184 215.961 41.2163Z" fill="#767272"/>
<path d="M105.32 31.6265C108.075 31.6265 110.83 31.6265 113.668 31.6265C113.668 47.004 113.668 62.3816 113.668 78.2252C110.913 78.2252 108.158 78.2252 105.32 78.2252C105.32 62.8476 105.32 47.47 105.32 31.6265Z" fill="#767272"/>
<path d="M21.9987 42.2122C24.7897 42.2122 27.5807 42.2122 30.4563 42.2122C30.4563 54.1325 30.4563 66.0528 30.4563 78.3343C27.6653 78.3343 24.8742 78.3343 21.9987 78.3343C21.9987 66.414 21.9987 54.4937 21.9987 42.2122Z" fill="#3DB349"/>
<path d="M87.4464 22.2208C87.4928 22.221 87.5392 22.2213 87.5871 22.2216C89.9751 22.2368 92.1846 23.0305 93.9158 24.6967C93.9503 24.7277 93.9847 24.7587 94.0202 24.7907C95.2839 25.9615 95.9722 27.8621 96.0438 29.553C96.1149 31.7446 95.3436 33.4124 93.8914 35.0284C93.6777 35.256 93.4437 35.4616 93.2064 35.6643C93.3915 35.8548 93.5835 36.0256 93.7896 36.1929C95.4765 37.6007 96.7299 39.3722 96.9544 41.6015C97.1281 43.6813 96.5726 45.7633 95.2254 47.3794C93.4924 49.373 91.204 50.5264 88.5631 50.769C86.6383 50.8889 84.7596 50.69 83.0027 49.8512C82.9378 49.8204 82.9378 49.8204 82.8715 49.789C81.947 49.3439 81.175 48.7602 80.4382 48.0506C80.4032 48.0185 80.3683 47.9863 80.3322 47.9532C79.1335 46.8212 78.3846 45.1242 78.1533 43.5149C78.1434 43.4477 78.1434 43.4477 78.1334 43.3792C78.0727 42.8937 78.0919 42.4385 78.0919 41.9393C79.7485 41.9393 81.4051 41.9393 83.1119 41.9393C83.1659 42.3444 83.1659 42.3444 83.221 42.7578C83.5101 43.743 84.1496 44.4844 85.0355 44.9864C86.2596 45.632 87.6356 45.7626 88.9557 45.3562C89.9796 45.0219 90.83 44.4233 91.3512 43.4671C91.7015 42.7267 91.8221 41.9223 91.5899 41.1208C91.2142 40.0923 90.5054 39.3649 89.5233 38.8939C88.2495 38.3608 86.9484 38.4289 85.5673 38.3926C85.5673 36.7179 85.5673 35.0433 85.5673 33.318C86.3416 33.3 87.1159 33.282 87.9136 33.2634C88.8705 33.0242 89.7327 32.7326 90.3145 31.8993C90.7155 31.201 90.9313 30.5642 90.7681 29.7472C90.5491 28.9743 90.1014 28.3018 89.3971 27.8956C88.4823 27.3916 87.3955 27.2614 86.379 27.5102C85.5492 27.7742 84.838 28.2519 84.3905 29.0116C84.1613 29.4789 84.0914 29.9066 84.0395 30.426C82.4009 30.426 80.7623 30.426 79.074 30.426C79.074 28.1704 79.76 26.2215 81.3227 24.5758C81.5583 24.3406 81.8097 24.1332 82.0751 23.9328C82.1175 23.9005 82.1598 23.8682 82.2034 23.8349C83.743 22.7099 85.5551 22.2022 87.4464 22.2208Z" fill="#3DB349"/>
<path d="M29.3104 31.4082C29.3636 31.4565 29.4169 31.5047 29.4717 31.5544C30.4138 32.4347 30.9676 33.6313 31.0209 34.9223C31.0546 36.4625 30.6566 37.8034 29.5832 38.9382C28.7349 39.821 27.6139 40.2829 26.3945 40.3178C25.1213 40.3339 23.9473 39.9335 23.0254 39.0371C22.9746 38.9865 22.9239 38.9358 22.8717 38.8836C22.8271 38.8397 22.7826 38.7959 22.7368 38.7506C21.8108 37.7849 21.4266 36.4511 21.4451 35.1357C21.496 33.9681 21.8373 32.9097 22.5988 32.0084C22.6525 31.9428 22.6525 31.9428 22.7073 31.8758C23.5167 30.9259 24.5839 30.4079 25.8182 30.2726C27.1035 30.2031 28.3484 30.519 29.3104 31.4082Z" fill="#3DB349"/>
</svg>
