<svg width="1362" height="348" viewBox="0 0 1362 348" fill="none" xmlns="http://www.w3.org/2000/svg">
<g clip-path="url(#clip0_104_2126)">
<path d="M14.9532 9.10768C12.0985 10.0592 9.51568 12.9411 8.91756 15.8502C7.74849 21.4508 13.3491 27.0514 18.9497 25.8824C23.1638 25.0124 26.4263 20.7167 26.0185 16.6658C25.7194 13.8111 23.5716 10.8749 20.8529 9.54268C19.1944 8.75424 16.6388 8.56393 14.9532 9.10768Z" fill="#DBDBDB"/>
<path d="M83.4163 9.10765C79.311 10.467 76.5378 14.9801 77.3807 18.9495C78.0603 22.1848 81.0782 25.2026 84.2863 25.8823C89.5607 26.997 95.0253 22.0217 94.4816 16.6658C94.1825 13.8111 92.0347 10.8748 89.316 9.54264C87.6575 8.75421 85.1019 8.56389 83.4163 9.10765Z" fill="#DBDBDB"/>
<path d="M151.887 9.10768C149.033 10.0592 146.45 12.9411 145.852 15.8502C144.683 21.4508 150.283 27.0514 155.884 25.8824C160.098 25.0124 163.36 20.7167 162.953 16.6658C162.654 13.8111 160.506 10.8749 157.787 9.54268C156.129 8.75424 153.573 8.56393 151.887 9.10768Z" fill="#DBDBDB"/>
<path d="M220.355 9.10768C217.501 10.0592 214.918 12.9411 214.32 15.8502C213.151 21.4508 218.751 27.0514 224.352 25.8824C228.566 25.0124 231.828 20.7167 231.421 16.6658C231.122 13.8111 228.974 10.8749 226.255 9.54268C224.597 8.75424 222.041 8.56393 220.355 9.10768Z" fill="#DBDBDB"/>
<path d="M288.823 9.10768C285.968 10.0592 283.386 12.9411 282.787 15.8502C281.618 21.4508 287.219 27.0514 292.82 25.8824C297.034 25.0124 300.296 20.7167 299.888 16.6658C299.589 13.8111 297.441 10.8749 294.723 9.54268C293.064 8.75424 290.509 8.56393 288.823 9.10768Z" fill="#DBDBDB"/>
<path d="M14.9532 77.5874C12.0985 78.539 9.51568 81.4209 8.91756 84.3299C7.74849 89.9305 13.3491 95.5312 18.9497 94.3621C23.1638 93.4921 26.4263 89.1965 26.0185 85.1455C25.7194 82.2909 23.5716 79.3546 20.8529 78.0224C19.1944 77.234 16.6388 77.0437 14.9532 77.5874Z" fill="#DBDBDB"/>
<path d="M83.4163 77.5874C79.311 78.9468 76.5378 83.4599 77.3807 87.4293C78.0603 90.6646 81.0782 93.6824 84.2863 94.3621C89.5607 95.4768 95.0253 90.5015 94.4816 85.1456C94.1825 82.2909 92.0347 79.3546 89.316 78.0224C87.6575 77.234 85.1019 77.0437 83.4163 77.5874Z" fill="#DBDBDB"/>
<path d="M151.887 77.5874C149.033 78.539 146.45 81.4209 145.852 84.3299C144.683 89.9305 150.283 95.5312 155.884 94.3621C160.098 93.4921 163.36 89.1965 162.953 85.1455C162.654 82.2909 160.506 79.3546 157.787 78.0224C156.129 77.234 153.573 77.0437 151.887 77.5874Z" fill="#DBDBDB"/>
<path d="M220.355 77.5874C217.501 78.539 214.918 81.4209 214.32 84.3299C213.151 89.9305 218.751 95.5312 224.352 94.3621C228.566 93.4921 231.828 89.1965 231.421 85.1455C231.122 82.2909 228.974 79.3546 226.255 78.0224C224.597 77.234 222.041 77.0437 220.355 77.5874Z" fill="#DBDBDB"/>
<path d="M288.823 77.5874C285.968 78.539 283.386 81.4209 282.787 84.3299C281.618 89.9305 287.219 95.5312 292.82 94.3621C297.034 93.4921 300.296 89.1965 299.888 85.1455C299.589 82.2909 297.441 79.3546 294.723 78.0224C293.064 77.234 290.509 77.0437 288.823 77.5874Z" fill="#DBDBDB"/>
<path d="M14.9532 146.018C12.0985 146.97 9.51568 149.851 8.91756 152.761C7.74849 158.361 13.3491 163.962 18.9497 162.793C23.1638 161.923 26.4263 157.627 26.0185 153.576C25.7194 150.721 23.5716 147.785 20.8529 146.453C19.1944 145.665 16.6388 145.474 14.9532 146.018Z" fill="#DBDBDB"/>
<path d="M83.4212 146.018C80.5665 146.97 77.9837 149.851 77.3856 152.761C76.2165 158.361 81.8171 163.962 87.4178 162.793C91.6318 161.923 94.8943 157.627 94.4865 153.576C94.1875 150.721 92.0396 147.785 89.3209 146.453C87.6624 145.665 85.1068 145.474 83.4212 146.018Z" fill="#DBDBDB"/>
<path d="M151.889 146.018C149.035 146.97 146.452 149.851 145.854 152.761C144.685 158.361 150.285 163.962 155.886 162.793C160.1 161.923 163.362 157.627 162.955 153.576C162.655 150.721 160.508 147.785 157.789 146.453C156.13 145.665 153.575 145.474 151.889 146.018Z" fill="#DBDBDB"/>
<path d="M220.357 146.018C217.503 146.97 214.92 149.851 214.322 152.761C213.153 158.361 218.753 163.962 224.354 162.793C228.568 161.923 231.83 157.627 231.423 153.576C231.123 150.721 228.976 147.785 226.257 146.453C224.598 145.665 222.043 145.474 220.357 146.018Z" fill="#DBDBDB"/>
<path d="M288.825 146.018C285.971 146.97 283.388 149.851 282.79 152.761C281.621 158.361 287.221 163.962 292.822 162.793C297.036 161.923 300.298 157.627 299.891 153.576C299.592 150.721 297.444 147.785 294.725 146.453C293.067 145.665 290.511 145.474 288.825 146.018Z" fill="#DBDBDB"/>
<path d="M14.9532 214.435C12.0985 215.386 9.51568 218.268 8.91756 221.177C7.74849 226.778 13.3491 232.378 18.9497 231.209C23.1638 230.339 26.4263 226.044 26.0185 221.993C25.7194 219.138 23.5716 216.202 20.8529 214.87C19.1944 214.081 16.6388 213.891 14.9532 214.435Z" fill="#DBDBDB"/>
<path d="M83.4212 214.435C80.5665 215.386 77.9837 218.268 77.3856 221.177C76.2165 226.778 81.8171 232.378 87.4178 231.209C91.6318 230.339 94.8943 226.044 94.4865 221.993C94.1875 219.138 92.0396 216.202 89.3209 214.87C87.6624 214.081 85.1068 213.891 83.4212 214.435Z" fill="#DBDBDB"/>
<path d="M151.889 214.435C149.035 215.386 146.452 218.268 145.854 221.177C144.685 226.778 150.285 232.378 155.886 231.209C160.1 230.339 163.362 226.044 162.955 221.993C162.655 219.138 160.508 216.202 157.789 214.87C156.13 214.081 153.575 213.891 151.889 214.435Z" fill="#DBDBDB"/>
<path d="M220.357 214.435C217.503 215.386 214.92 218.268 214.322 221.177C213.153 226.778 218.753 232.378 224.354 231.209C228.568 230.339 231.83 226.044 231.423 221.993C231.123 219.138 228.976 216.202 226.257 214.87C224.598 214.081 222.043 213.891 220.357 214.435Z" fill="#DBDBDB"/>
<path d="M288.825 214.435C285.971 215.386 283.388 218.268 282.79 221.177C281.621 226.778 287.221 232.378 292.822 231.209C297.036 230.339 300.298 226.044 299.891 221.993C299.592 219.138 297.444 216.202 294.725 214.87C293.067 214.081 290.511 213.891 288.825 214.435Z" fill="#DBDBDB"/>
<path d="M14.9532 282.851C12.0985 283.803 9.51568 286.685 8.91756 289.594C7.74849 295.194 13.3491 300.795 18.9497 299.626C23.1638 298.756 26.4263 294.46 26.0185 290.409C25.7194 287.555 23.5716 284.618 20.8529 283.286C19.1944 282.498 16.6388 282.308 14.9532 282.851Z" fill="#DBDBDB"/>
<path d="M83.4212 282.851C80.5665 283.803 77.9837 286.685 77.3856 289.594C76.2165 295.194 81.8171 300.795 87.4178 299.626C91.6318 298.756 94.8943 294.46 94.4865 290.409C94.1875 287.555 92.0396 284.618 89.3209 283.286C87.6624 282.498 85.1068 282.308 83.4212 282.851Z" fill="#DBDBDB"/>
<path d="M151.889 282.851C149.035 283.803 146.452 286.685 145.854 289.594C144.685 295.194 150.285 300.795 155.886 299.626C160.1 298.756 163.362 294.46 162.955 290.409C162.655 287.555 160.508 284.618 157.789 283.286C156.13 282.498 153.575 282.308 151.889 282.851Z" fill="#DBDBDB"/>
<path d="M220.357 282.851C217.503 283.803 214.92 286.685 214.322 289.594C213.153 295.194 218.753 300.795 224.354 299.626C228.568 298.756 231.83 294.46 231.423 290.409C231.123 287.555 228.976 284.618 226.257 283.286C224.598 282.498 222.043 282.308 220.357 282.851Z" fill="#DBDBDB"/>
<path d="M288.825 282.851C285.971 283.803 283.388 286.685 282.79 289.594C281.621 295.194 287.221 300.795 292.822 299.626C297.036 298.756 300.298 294.46 299.891 290.409C299.592 287.555 297.444 284.618 294.725 283.286C293.067 282.498 290.511 282.308 288.825 282.851Z" fill="#DBDBDB"/>
</g>
<g clip-path="url(#clip1_104_2126)">
<path d="M1028.95 9.10768C1026.1 10.0592 1023.52 12.9411 1022.92 15.8502C1021.75 21.4508 1027.35 27.0514 1032.95 25.8824C1037.16 25.0124 1040.43 20.7167 1040.02 16.6658C1039.72 13.8111 1037.57 10.8749 1034.85 9.54268C1033.19 8.75424 1030.64 8.56393 1028.95 9.10768Z" fill="#DBDBDB"/>
<path d="M1097.42 9.10765C1093.31 10.467 1090.54 14.9801 1091.38 18.9495C1092.06 22.1848 1095.08 25.2026 1098.29 25.8823C1103.56 26.997 1109.03 22.0217 1108.48 16.6658C1108.18 13.8111 1106.03 10.8748 1103.32 9.54264C1101.66 8.75421 1099.1 8.56389 1097.42 9.10765Z" fill="#DBDBDB"/>
<path d="M1165.89 9.10768C1163.03 10.0592 1160.45 12.9411 1159.85 15.8502C1158.68 21.4508 1164.28 27.0514 1169.88 25.8824C1174.1 25.0124 1177.36 20.7167 1176.95 16.6658C1176.65 13.8111 1174.51 10.8749 1171.79 9.54268C1170.13 8.75424 1167.57 8.56393 1165.89 9.10768Z" fill="#DBDBDB"/>
<path d="M1234.36 9.10768C1231.5 10.0592 1228.92 12.9411 1228.32 15.8502C1227.15 21.4508 1232.75 27.0514 1238.35 25.8824C1242.57 25.0124 1245.83 20.7167 1245.42 16.6658C1245.12 13.8111 1242.97 10.8749 1240.26 9.54268C1238.6 8.75424 1236.04 8.56393 1234.36 9.10768Z" fill="#DBDBDB"/>
<path d="M1302.82 9.10768C1299.97 10.0592 1297.39 12.9411 1296.79 15.8502C1295.62 21.4508 1301.22 27.0514 1306.82 25.8824C1311.03 25.0124 1314.3 20.7167 1313.89 16.6658C1313.59 13.8111 1311.44 10.8749 1308.72 9.54268C1307.06 8.75424 1304.51 8.56393 1302.82 9.10768Z" fill="#DBDBDB"/>
<path d="M1028.95 77.5874C1026.1 78.539 1023.52 81.4209 1022.92 84.3299C1021.75 89.9305 1027.35 95.5312 1032.95 94.3621C1037.16 93.4921 1040.43 89.1965 1040.02 85.1455C1039.72 82.2909 1037.57 79.3546 1034.85 78.0224C1033.19 77.234 1030.64 77.0437 1028.95 77.5874Z" fill="#DBDBDB"/>
<path d="M1097.42 77.5874C1093.31 78.9468 1090.54 83.4599 1091.38 87.4293C1092.06 90.6646 1095.08 93.6824 1098.29 94.3621C1103.56 95.4768 1109.03 90.5015 1108.48 85.1456C1108.18 82.2909 1106.03 79.3546 1103.32 78.0224C1101.66 77.234 1099.1 77.0437 1097.42 77.5874Z" fill="#DBDBDB"/>
<path d="M1165.89 77.5874C1163.03 78.539 1160.45 81.4209 1159.85 84.3299C1158.68 89.9305 1164.28 95.5312 1169.88 94.3621C1174.1 93.4921 1177.36 89.1965 1176.95 85.1455C1176.65 82.2909 1174.51 79.3546 1171.79 78.0224C1170.13 77.234 1167.57 77.0437 1165.89 77.5874Z" fill="#DBDBDB"/>
<path d="M1234.36 77.5874C1231.5 78.539 1228.92 81.4209 1228.32 84.3299C1227.15 89.9305 1232.75 95.5312 1238.35 94.3621C1242.57 93.4921 1245.83 89.1965 1245.42 85.1455C1245.12 82.2909 1242.97 79.3546 1240.26 78.0224C1238.6 77.234 1236.04 77.0437 1234.36 77.5874Z" fill="#DBDBDB"/>
<path d="M1302.82 77.5874C1299.97 78.539 1297.39 81.4209 1296.79 84.3299C1295.62 89.9305 1301.22 95.5312 1306.82 94.3621C1311.03 93.4921 1314.3 89.1965 1313.89 85.1455C1313.59 82.2909 1311.44 79.3546 1308.72 78.0224C1307.06 77.234 1304.51 77.0437 1302.82 77.5874Z" fill="#DBDBDB"/>
<path d="M1028.95 146.018C1026.1 146.97 1023.52 149.851 1022.92 152.761C1021.75 158.361 1027.35 163.962 1032.95 162.793C1037.16 161.923 1040.43 157.627 1040.02 153.576C1039.72 150.721 1037.57 147.785 1034.85 146.453C1033.19 145.665 1030.64 145.474 1028.95 146.018Z" fill="#DBDBDB"/>
<path d="M1097.42 146.018C1094.57 146.97 1091.98 149.851 1091.39 152.761C1090.22 158.361 1095.82 163.962 1101.42 162.793C1105.63 161.923 1108.89 157.627 1108.49 153.576C1108.19 150.721 1106.04 147.785 1103.32 146.453C1101.66 145.665 1099.11 145.474 1097.42 146.018Z" fill="#DBDBDB"/>
<path d="M1165.89 146.018C1163.03 146.97 1160.45 149.851 1159.85 152.761C1158.68 158.361 1164.29 163.962 1169.89 162.793C1174.1 161.923 1177.36 157.627 1176.95 153.576C1176.66 150.721 1174.51 147.785 1171.79 146.453C1170.13 145.665 1167.57 145.474 1165.89 146.018Z" fill="#DBDBDB"/>
<path d="M1234.36 146.018C1231.5 146.97 1228.92 149.851 1228.32 152.761C1227.15 158.361 1232.75 163.962 1238.35 162.793C1242.57 161.923 1245.83 157.627 1245.42 153.576C1245.12 150.721 1242.98 147.785 1240.26 146.453C1238.6 145.665 1236.04 145.474 1234.36 146.018Z" fill="#DBDBDB"/>
<path d="M1302.83 146.018C1299.97 146.97 1297.39 149.851 1296.79 152.761C1295.62 158.361 1301.22 163.962 1306.82 162.793C1311.04 161.923 1314.3 157.627 1313.89 153.576C1313.59 150.721 1311.44 147.785 1308.72 146.453C1307.07 145.665 1304.51 145.474 1302.83 146.018Z" fill="#DBDBDB"/>
<path d="M1028.95 214.435C1026.1 215.386 1023.52 218.268 1022.92 221.177C1021.75 226.778 1027.35 232.378 1032.95 231.209C1037.16 230.339 1040.43 226.044 1040.02 221.993C1039.72 219.138 1037.57 216.202 1034.85 214.87C1033.19 214.081 1030.64 213.891 1028.95 214.435Z" fill="#DBDBDB"/>
<path d="M1097.42 214.435C1094.57 215.386 1091.98 218.268 1091.39 221.177C1090.22 226.778 1095.82 232.378 1101.42 231.209C1105.63 230.339 1108.89 226.044 1108.49 221.993C1108.19 219.138 1106.04 216.202 1103.32 214.87C1101.66 214.081 1099.11 213.891 1097.42 214.435Z" fill="#DBDBDB"/>
<path d="M1165.89 214.435C1163.03 215.386 1160.45 218.268 1159.85 221.177C1158.68 226.778 1164.29 232.378 1169.89 231.209C1174.1 230.339 1177.36 226.044 1176.95 221.993C1176.66 219.138 1174.51 216.202 1171.79 214.87C1170.13 214.081 1167.57 213.891 1165.89 214.435Z" fill="#DBDBDB"/>
<path d="M1234.36 214.435C1231.5 215.386 1228.92 218.268 1228.32 221.177C1227.15 226.778 1232.75 232.378 1238.35 231.209C1242.57 230.339 1245.83 226.044 1245.42 221.993C1245.12 219.138 1242.98 216.202 1240.26 214.87C1238.6 214.081 1236.04 213.891 1234.36 214.435Z" fill="#DBDBDB"/>
<path d="M1302.83 214.435C1299.97 215.386 1297.39 218.268 1296.79 221.177C1295.62 226.778 1301.22 232.378 1306.82 231.209C1311.04 230.339 1314.3 226.044 1313.89 221.993C1313.59 219.138 1311.44 216.202 1308.72 214.87C1307.07 214.081 1304.51 213.891 1302.83 214.435Z" fill="#DBDBDB"/>
<path d="M1028.95 282.851C1026.1 283.803 1023.52 286.685 1022.92 289.594C1021.75 295.194 1027.35 300.795 1032.95 299.626C1037.16 298.756 1040.43 294.46 1040.02 290.409C1039.72 287.555 1037.57 284.618 1034.85 283.286C1033.19 282.498 1030.64 282.308 1028.95 282.851Z" fill="#DBDBDB"/>
<path d="M1097.42 282.851C1094.57 283.803 1091.98 286.685 1091.39 289.594C1090.22 295.194 1095.82 300.795 1101.42 299.626C1105.63 298.756 1108.89 294.46 1108.49 290.409C1108.19 287.555 1106.04 284.618 1103.32 283.286C1101.66 282.498 1099.11 282.308 1097.42 282.851Z" fill="#DBDBDB"/>
<path d="M1165.89 282.851C1163.03 283.803 1160.45 286.685 1159.85 289.594C1158.68 295.194 1164.29 300.795 1169.89 299.626C1174.1 298.756 1177.36 294.46 1176.95 290.409C1176.66 287.555 1174.51 284.618 1171.79 283.286C1170.13 282.498 1167.57 282.308 1165.89 282.851Z" fill="#DBDBDB"/>
<path d="M1234.36 282.851C1231.5 283.803 1228.92 286.685 1228.32 289.594C1227.15 295.194 1232.75 300.795 1238.35 299.626C1242.57 298.756 1245.83 294.46 1245.42 290.409C1245.12 287.555 1242.98 284.618 1240.26 283.286C1238.6 282.498 1236.04 282.308 1234.36 282.851Z" fill="#DBDBDB"/>
<path d="M1302.83 282.851C1299.97 283.803 1297.39 286.685 1296.79 289.594C1295.62 295.194 1301.22 300.795 1306.82 299.626C1311.04 298.756 1314.3 294.46 1313.89 290.409C1313.59 287.555 1311.44 284.618 1308.72 283.286C1307.07 282.498 1304.51 282.308 1302.83 282.851Z" fill="#DBDBDB"/>
</g>
<defs>
<clipPath id="clip0_104_2126">
<rect width="348" height="348" fill="white"/>
</clipPath>
<clipPath id="clip1_104_2126">
<rect width="348" height="348" fill="white" transform="translate(1014)"/>
</clipPath>
</defs>
</svg>
