<svg width="15" height="14" viewBox="0 0 15 14" fill="none" xmlns="http://www.w3.org/2000/svg">
<path d="M3.23397 4.39809H0.211596V13.2491H3.23397V4.39809Z" fill="#313131"/>
<path d="M2.72586 0.267509C2.4378 0.093089 2.09928 5.30565e-06 1.75301 2.25998e-10C1.52195 -3.53673e-06 1.29318 0.0414495 1.07984 0.121976C0.866497 0.202502 0.672801 0.320511 0.50989 0.469219C0.346978 0.617926 0.218065 0.794396 0.130564 0.988481C0.0430633 1.18256 -0.00129897 1.39043 2.89537e-05 1.60013C0.00201938 1.91441 0.106519 2.22111 0.300345 2.48154C0.49417 2.74197 0.768639 2.94447 1.08912 3.06348C1.40961 3.1825 1.76175 3.21271 2.10113 3.15029C2.44051 3.08787 2.75192 2.93563 2.99607 2.71276C3.24022 2.4899 3.40618 2.2064 3.47301 1.89803C3.53983 1.58966 3.50453 1.27024 3.37156 0.980052C3.23859 0.689869 3.01391 0.441928 2.72586 0.267509Z" fill="#313131"/>
<path d="M8.08547 4.39764H5.17391L5.16383 13.267H8.18621V8.88716C8.18621 7.73506 8.428 6.61954 9.99964 6.61954C11.5713 6.61954 11.5713 7.94537 11.5713 8.96945V13.2487H14.5937V8.39341C14.5937 6.00692 13.9791 4.17819 10.9567 4.17819C10.3807 4.15773 9.80933 4.27961 9.30364 4.53083C8.79795 4.78205 8.37692 5.15317 8.08547 5.6046V4.39764Z" fill="#313131"/>
</svg>
