<svg width="72" height="72" viewBox="0 0 72 72" fill="none" xmlns="http://www.w3.org/2000/svg">
<g clip-path="url(#clip0_104_1973)">
<path d="M29.6719 40.2188C29.6719 43.708 32.5107 46.5469 36 46.5469C39.4893 46.5469 42.3281 43.708 42.3281 40.2188C42.3281 36.7295 39.4893 33.8906 36 33.8906C32.5107 33.8906 29.6719 36.7295 29.6719 40.2188Z" fill="#FF4E4E"/>
<path d="M36 50.7656C29.0209 50.7656 23.3438 56.4428 23.3438 63.4219V72H48.6562V63.4219C48.6562 56.4428 42.9791 50.7656 36 50.7656Z" fill="#FF4E4E"/>
<path d="M19.125 44.4375C19.125 40.9482 16.2861 38.1094 12.7969 38.1094C9.30762 38.1094 6.46875 40.9482 6.46875 44.4375C6.46875 47.9268 9.30762 50.7656 12.7969 50.7656C16.2861 50.7656 19.125 47.9268 19.125 44.4375Z" fill="black"/>
<path d="M65.5312 44.4375C65.5312 40.9482 62.6924 38.1094 59.2031 38.1094C55.7139 38.1094 52.875 40.9482 52.875 44.4375C52.875 47.9268 55.7139 50.7656 59.2031 50.7656C62.6924 50.7656 65.5312 47.9268 65.5312 44.4375Z" fill="black"/>
<path d="M10.6875 0L7.47839 7.56573L0 8.62042L5.39374 13.7439L4.15338 21.2344L10.6875 17.8193L17.2216 21.2344L15.9813 13.7439L21.2344 8.62042L13.9752 7.56573L10.6875 0Z" fill="black"/>
<path d="M39.2877 7.56573L36 0L32.7909 7.56573L25.4531 8.62042L30.7062 13.7439L29.4659 21.2344L36 17.8193L42.5341 21.2344L41.2938 13.7439L46.5469 8.62042L39.2877 7.56573Z" fill="#FF4E4E"/>
<path d="M61.3125 0L58.1034 7.56573L50.7656 8.62042L56.0187 13.7439L54.7784 21.2344L61.3125 17.8193L67.8466 21.2344L66.6063 13.7439L72 8.62042L64.6002 7.56573L61.3125 0Z" fill="black"/>
<path d="M59.2032 54.9844C56.3995 54.9844 53.8336 55.9254 51.7363 57.4678C52.4422 59.3262 52.8751 61.3191 52.8751 63.4219V72H72.0001V67.6406C72.0001 60.6506 66.1932 54.9844 59.2032 54.9844Z" fill="black"/>
<path d="M0 67.6406V72H19.125V63.4219C19.125 61.3191 19.5579 59.3262 20.2637 57.4678C18.1664 55.9254 15.6006 54.9844 12.7969 54.9844C5.80682 54.9844 0 60.6506 0 67.6406Z" fill="black"/>
</g>
<defs>
<clipPath id="clip0_104_1973">
<rect width="72" height="72" fill="white"/>
</clipPath>
</defs>
</svg>
